<svg version="1.2" xmlns="http://www.w3.org/2000/svg" viewBox="0 0 512 512" width="512" height="512"><style>.a{fill:#00aeff}.b{opacity:.7;fill:#00aeff}.c{opacity:.5;fill:#00aeff}</style><path class="a" d="m179.7 439.9c37.4 19.6 56.2 29.4 76.3 29.4v-213.3l-199.7-105.1q-0.1 0.2-0.2 0.3-0.1 0.2-0.3 0.4-0.1 0.2-0.2 0.4-0.1 0.1-0.2 0.3c-12.7 21.7-12.7 48.6-12.7 102.5v2.5c0 53.8 0 80.7 12.7 102.4 12.8 21.6 35.7 33.7 81.6 57.8 0 0 42.7 22.4 42.7 22.4z"/><path class="b" d="m375 94.5l-42.7-22.4c-37.4-19.6-56.2-29.4-76.3-29.4-20.2 0-38.9 9.8-76.3 29.4l-42.7 22.4c-44.9 23.6-67.8 35.6-80.7 56.4l199.7 105.1 199.7-105.1c-12.9-20.8-35.8-32.8-80.7-56.4z"/><path class="c" d="m456.6 152.3q-0.1-0.2-0.2-0.3-0.1-0.2-0.2-0.4-0.1-0.2-0.3-0.4-0.1-0.1-0.2-0.3l-199.7 105.1v213.3c20.1 0 38.9-9.8 76.3-29.4l42.7-22.4c45.9-24.1 68.8-36.2 81.6-57.8 12.7-21.7 12.7-48.6 12.7-102.4v-2.5c0-53.9 0-80.8-12.7-102.5z"/></svg>